<svg xmlns="http://www.w3.org/2000/svg" viewBox="0 0 256 256" role="img" aria-labelledby="title desc"><title id="title">ServiceRocket portfolio mark</title><desc id="desc">Stylized SR monogram for the ServiceRocket experience card.</desc><defs><linearGradient id="g" x1="0" y1="0" x2="1" y2="1"><stop offset="0" stop-color="#101828"/><stop offset="1" stop-color="#344054"/></linearGradient></defs><rect width="256" height="256" rx="52" fill="url(#g)"/><path d="M56 70h74c28 0 48 15 48 40 0 18-10 31-28 37l35 39h-35l-30-35H88v35H56V70zm32 28v27h39c12 0 19-5 19-14 0-8-7-13-19-13H88z" fill="#fff"/><path d="M170 45l12 23 25 4-18 18 4 25-23-12-22 12 4-25-18-18 25-4 11-23z" fill="#F79009"/></svg>