<svg xmlns="http://www.w3.org/2000/svg" viewBox="0 0 1200 700"><defs><linearGradient id="b" x2="1" y2="1"><stop stop-color="#11152b"/><stop offset="0.48" stop-color="#312e81"/><stop offset="1" stop-color="#0f3d56"/></linearGradient><linearGradient id="g" x2="1"><stop stop-color="#6C63FF"/><stop offset="0.34" stop-color="#D946EF"/><stop offset="0.67" stop-color="#10B981"/><stop offset="1" stop-color="#0EA5E9"/></linearGradient></defs><rect width="1200" height="700" rx="40" fill="url(#b)"/><circle cx="1040" cy="110" r="160" fill="#6C63FF" opacity=".11"/><circle cx="1080" cy="620" r="200" fill="#0EA5E9" opacity=".10"/><text x="80" y="140" fill="#c7d2fe" font-family="Arial" font-size="34" font-weight="700">AI RESEARCH LAB</text><text x="80" y="220" fill="white" font-family="Arial" font-size="58" font-weight="700">Learn it. See it. Build it.</text><text x="80" y="278" fill="#dbeafe" font-family="Arial" font-size="27">12 weeks • 120 lessons • Mermaid • Three.js • labs</text><rect x="80" y="344" width="1040" height="255" rx="28" fill="#ffffff"/><rect x="118" y="386" width="78" height="78" rx="20" fill="#11152b"/><circle cx="143" cy="420" r="8" fill="#6C63FF"/><circle cx="170" cy="404" r="8" fill="#D946EF"/><circle cx="170" cy="438" r="8" fill="#10B981"/><circle cx="143" cy="447" r="8" fill="#0EA5E9"/><path d="M149 417l15-9M149 423l15 12M143 429v10M166 410v20" stroke="#ffffff" stroke-width="4" stroke-linecap="round"/><text x="238" y="412" fill="#6C63FF" font-family="Arial" font-size="21" font-weight="700">VISUAL AI LEARNING PLATFORM</text><text x="238" y="466" fill="#111827" font-family="Arial" font-size="34" font-weight="700">Learn → Visualize → Check → Lab → Homework</text><text x="238" y="516" fill="#64748b" font-family="Arial" font-size="23">Progress tracking • AI-native diagrams • hands-on curriculum</text><rect x="238" y="548" width="720" height="12" rx="6" fill="#e5e7eb"/><rect x="238" y="548" width="540" height="12" rx="6" fill="url(#g)"/></svg>